<svg width="28" height="28" viewBox="0 0 28 28" fill="none" xmlns="http://www.w3.org/2000/svg">
<path fill-rule="evenodd" clip-rule="evenodd" d="M14.8401 1.5158L18.7064 9.17573L26.148 9.91295C26.5097 9.94301 26.8209 10.1807 26.945 10.5219C27.0692 10.863 26.9835 11.2451 26.7257 11.5006L20.6015 17.5706L22.8721 25.8187C22.967 26.176 22.8434 26.5558 22.5564 26.7889C22.2694 27.0221 21.8724 27.0652 21.5421 26.8991L13.9977 23.1633L6.4637 26.8944C6.13337 27.0605 5.73633 27.0174 5.44934 26.7843C5.16236 26.5512 5.03881 26.1714 5.1337 25.814L7.4043 17.5659L1.27543 11.496C1.01761 11.2405 0.931977 10.8583 1.05611 10.5172C1.18023 10.1761 1.49144 9.93839 1.85319 9.90833L9.29472 9.17111L13.1553 1.5158C13.3172 1.19963 13.6425 1.00073 13.9977 1.00073C14.3529 1.00073 14.6782 1.19963 14.8401 1.5158Z" stroke="#B3B3B3" stroke-width="1.2" stroke-linecap="round" stroke-linejoin="round"/>
</svg>
