<svg width="20" height="20" viewBox="0 0 20 20" fill="none" xmlns="http://www.w3.org/2000/svg">
<g clip-path="url(#clip0_42_1265)">
<path d="M14.8222 3.13333C14.0629 2.26614 13.6443 1.15267 13.6444 0H10.2111V13.7778C10.1852 14.5235 9.87058 15.2301 9.33367 15.7483C8.79677 16.2666 8.07955 16.556 7.33333 16.5556C5.75556 16.5556 4.44444 15.2667 4.44444 13.6667C4.44444 11.7556 6.28889 10.3222 8.18889 10.9111V7.4C4.35556 6.88889 1 9.86667 1 13.6667C1 17.3667 4.06667 20 7.32222 20C10.8111 20 13.6444 17.1667 13.6444 13.6667V6.67778C15.0367 7.67761 16.7082 8.21405 18.4222 8.21111V4.77778C18.4222 4.77778 16.3333 4.87778 14.8222 3.13333Z" fill="white"/>
</g>
<defs>
<clipPath id="clip0_42_1265">
<rect width="20" height="20" fill="white"/>
</clipPath>
</defs>
</svg>
